<svg class="svg-icon" style="width: 1em;height: 1em;vertical-align: middle;fill: currentColor;overflow: hidden;" viewBox="0 0 1024 1024" version="1.1" xmlns="http://www.w3.org/2000/svg"><path d="M824 928H200c-57.438 0-104-46.563-104-104V200c0-57.438 46.562-104 104-104h248v64H200c-22.091 0-40 17.909-40 40v624c0 22.091 17.909 40 40 40h624c22.091 0 40-17.909 40-40V576h64v248c0 57.438-46.562 104-104 104zM512 288c17.673 0 32 14.327 32 32v114.771l329.369-329.394c12.495-12.496 32.753-12.496 45.248 0 12.495 12.496 12.495 32.756 0 45.252L589.27 480H704c17.673 0 32 14.327 32 32 0 17.673-14.327 32-32 32H512c-17.673 0-32-14.327-32-32V320c0-17.673 14.327-32 32-32z"  /></svg>